<svg xmlns="http://www.w3.org/2000/svg" width="500" height="500" style="width:100%;height:100%;transform:translate3d(0,0,0);content-visibility:visible" viewBox="0 0 500 500"><defs><clipPath id="a"><path d="M0 0h500v500H0z"/></clipPath><clipPath id="e"><path d="M0 0h500v500H0z"/></clipPath><clipPath id="d"><path d="M0 0h500v500H0z"/></clipPath><clipPath id="c"><path d="M0 0h500v500H0z"/></clipPath><clipPath id="b"><path d="M0 0h500v500H0z"/></clipPath></defs><g clip-path="url(#a)"><g class="primary design" clip-path="url(#b)" style="display:none"><path class="primary"/></g><g clip-path="url(#c)" style="display:none"><g class="primary design" style="display:none"><path class="primary"/></g><g class="primary design" style="display:none"><path class="primary"/></g></g><g class="primary design" clip-path="url(#d)" style="display:block"><path fill="#F4C79C" d="M456.753 241.458c-.042-.099-.093-.194-.136-.292-.215-.482-.437-.96-.69-1.428-.194-.363-.413-.71-.628-1.06-.117-.189-.222-.383-.346-.569a21 21 0 0 0-3.268-3.845l-82.681-82.681c-8.125-8.125-21.25-8.125-29.375 0s-8.125 21.25 0 29.375l47.709 47.709H62.546c-11.458 0-20.833 9.375-20.833 20.833 0 11.459 9.375 20.833 20.833 20.833h324.792l-47.917 47.917c-8.125 8.125-8.125 21.25 0 29.375 4.167 3.958 9.375 6.042 14.792 6.042s10.624-2.084 14.791-6.042l83.334-83.333c6.186-6.186 7.648-15.265 4.415-22.834" class="primary"/></g><g class="primary design" clip-path="url(#e)" style="display:none"><path class="primary"/></g></g></svg>